STARTFONT 2.1
COMMENT  (c) Copyright Bigelow & Holmes 1986, 1985. Lucida is a registered
COMMENT  trademark of Bigelow & Holmes. See LEGAL NOTICE file for terms 
COMMENT  of the license. 
FONT -B&H-LucidaBright-Medium-I-Normal--11-80-100-100-P-63-ISO8859-1
SIZE 8 100 100
FONTBOUNDINGBOX 17 14 -5 -3
STARTPROPERTIES 19
COMMENT Begin LogicalFontDescription
FONTNAME_REGISTRY ""
FOUNDRY "B&H"
FAMILY_NAME "LucidaBright"
WEIGHT_NAME "Medium"
SLANT "I"
SETWIDTH_NAME "Normal"
ADD_STYLE_NAME ""
PIXEL_SIZE 11
POINT_SIZE 80
RESOLUTION_X 100
RESOLUTION_Y 100
SPACING "P"
AVERAGE_WIDTH 63
CHARSET_REGISTRY "ISO8859"
CHARSET_ENCODING "1"
COMMENT END LogicalFontDescription
FONT_ASCENT 10
FONT_DESCENT 3
DEFAULT_CHAR 32
COPYRIGHT "Copyright Bigelow & Holmes 1986, 1985."
ENDPROPERTIES
CHARS 228
STARTCHAR space
ENCODING 32
SWIDTH 42 0
DWIDTH 3 0
BBX 1 1 0 0
BITMAP
00
ENDCHAR
STARTCHAR exclam
ENCODING 33
SWIDTH 42 0
DWIDTH 3 0
BBX 3 9 1 0
BITMAP
20
20
40
40
40
40
40
00
80
ENDCHAR
STARTCHAR quotedbl
ENCODING 34
SWIDTH 42 0
DWIDTH 4 0
BBX 3 4 2 5
BITMAP
A0
A0
A0
A0
ENDCHAR
STARTCHAR numbersign
ENCODING 35
SWIDTH 42 0
DWIDTH 7 0
BBX 7 9 1 0
BITMAP
1A
14
7E
28
28
FC
50
90
B0
ENDCHAR
STARTCHAR dollar
ENCODING 36
SWIDTH 42 0
DWIDTH 7 0
BBX 5 10 2 -1
BITMAP
78
60
60
60
20
70
50
D0
E0
40
ENDCHAR
STARTCHAR percent
ENCODING 37
SWIDTH 42 0
DWIDTH 8 0
BBX 8 9 1 0
BITMAP
71
52
54
6C
16
19
29
4A
86
ENDCHAR
STARTCHAR ampersand
ENCODING 38
SWIDTH 42 0
DWIDTH 8 0
BBX 8 9 1 0
BITMAP
1C
24
24
38
57
92
8C
CC
76
ENDCHAR
STARTCHAR quoteright
ENCODING 39
SWIDTH 42 0
DWIDTH 3 0
BBX 2 4 2 5
BITMAP
C0
40
40
80
ENDCHAR
STARTCHAR parenleft
ENCODING 40
SWIDTH 42 0
DWIDTH 3 0
BBX 4 12 1 -3
BITMAP
30
20
40
40
80
80
80
80
80
80
80
40
ENDCHAR
STARTCHAR parenright
ENCODING 41
SWIDTH 42 0
DWIDTH 3 0
BBX 4 11 0 -2
BITMAP
20
30
10
10
10
30
20
20
20
40
80
ENDCHAR
STARTCHAR asterisk
ENCODING 42
SWIDTH 42 0
DWIDTH 5 0
BBX 4 4 2 5
BITMAP
20
F0
60
A0
ENDCHAR
STARTCHAR plus
ENCODING 43
SWIDTH 42 0
DWIDTH 7 0
BBX 6 8 1 0
BITMAP
10
10
10
10
FC
20
20
20
ENDCHAR
STARTCHAR comma
ENCODING 44
SWIDTH 42 0
DWIDTH 3 0
BBX 2 4 0 -2
BITMAP
40
C0
40
80
ENDCHAR
STARTCHAR minus
ENCODING 45
SWIDTH 42 0
DWIDTH 7 0
BBX 6 1 1 3
BITMAP
FC
ENDCHAR
STARTCHAR period
ENCODING 46
SWIDTH 42 0
DWIDTH 3 0
BBX 2 1 1 0
BITMAP
C0
ENDCHAR
STARTCHAR slash
ENCODING 47
SWIDTH 42 0
DWIDTH 5 0
BBX 7 11 0 -2
BITMAP
02
04
04
08
10
10
20
20
40
40
80
ENDCHAR
STARTCHAR zero
ENCODING 48
SWIDTH 42 0
DWIDTH 7 0
BBX 6 9 1 0
BITMAP
38
6C
44
84
84
88
88
98
70
ENDCHAR
STARTCHAR one
ENCODING 49
SWIDTH 42 0
DWIDTH 7 0
BBX 4 9 1 0
BITMAP
70
10
10
20
20
20
20
20
F0
ENDCHAR
STARTCHAR two
ENCODING 50
SWIDTH 42 0
DWIDTH 7 0
BBX 6 9 1 0
BITMAP
38
44
04
04
18
20
60
40
F8
ENDCHAR
STARTCHAR three
ENCODING 51
SWIDTH 42 0
DWIDTH 7 0
BBX 6 9 1 0
BITMAP
38
4C
04
08
30
18
08
98
F0
ENDCHAR
STARTCHAR four
ENCODING 52
SWIDTH 42 0
DWIDTH 7 0
BBX 6 9 1 0
BITMAP
0C
14
28
48
88
FC
08
10
38
ENDCHAR
STARTCHAR five
ENCODING 53
SWIDTH 42 0
DWIDTH 7 0
BBX 6 9 1 0
BITMAP
3C
40
40
70
18
08
08
90
F0
ENDCHAR
STARTCHAR six
ENCODING 54
SWIDTH 42 0
DWIDTH 7 0
BBX 6 9 1 0
BITMAP
1C
24
40
F8
C8
88
88
98
70
ENDCHAR
STARTCHAR seven
ENCODING 55
SWIDTH 42 0
DWIDTH 7 0
BBX 6 9 2 0
BITMAP
7C
08
08
10
20
20
40
C0
80
ENDCHAR
STARTCHAR eight
ENCODING 56
SWIDTH 42 0
DWIDTH 7 0
BBX 6 9 1 0
BITMAP
38
44
44
78
70
88
88
88
70
ENDCHAR
STARTCHAR nine
ENCODING 57
SWIDTH 42 0
DWIDTH 7 0
BBX 6 9 1 0
BITMAP
38
6C
44
44
4C
7C
08
90
E0
ENDCHAR
STARTCHAR colon
ENCODING 58
SWIDTH 42 0
DWIDTH 3 0
BBX 2 6 1 0
BITMAP
40
00
00
00
00
80
ENDCHAR
STARTCHAR semicolon
ENCODING 59
SWIDTH 42 0
DWIDTH 3 0
BBX 3 8 0 -2
BITMAP
60
00
00
00
40
C0
40
80
ENDCHAR
STARTCHAR less
ENCODING 60
SWIDTH 42 0
DWIDTH 7 0
BBX 7 8 1 0
BITMAP
02
0C
10
E0
40
30
08
04
ENDCHAR
STARTCHAR equal
ENCODING 61
SWIDTH 42 0
DWIDTH 7 0
BBX 7 3 0 2
BITMAP
FE
00
FE
ENDCHAR
STARTCHAR greater
ENCODING 62
SWIDTH 42 0
DWIDTH 7 0
BBX 7 8 0 0
BITMAP
40
30
08
04
06
18
60
80
ENDCHAR
STARTCHAR question
ENCODING 63
SWIDTH 42 0
DWIDTH 5 0
BBX 4 9 2 0
BITMAP
F0
90
10
30
60
40
80
00
80
ENDCHAR
STARTCHAR at
ENCODING 64
SWIDTH 42 0
DWIDTH 9 0
BBX 9 9 1 0
BITMAP
1F00
2080
4E80
9280
A280
A480
9B00
4000
3C00
ENDCHAR
STARTCHAR A
ENCODING 65
SWIDTH 42 0
DWIDTH 8 0
BBX 8 9 0 0
BITMAP
04
0C
0C
14
32
3E
42
42
C7
ENDCHAR
STARTCHAR B
ENCODING 66
SWIDTH 42 0
DWIDTH 7 0
BBX 7 9 0 0
BITMAP
3E
12
22
24
38
24
66
44
F8
ENDCHAR
STARTCHAR C
ENCODING 67
SWIDTH 42 0
DWIDTH 8 0
BBX 7 9 1 0
BITMAP
1E
22
40
C0
80
80
80
C4
78
ENDCHAR
STARTCHAR D
ENCODING 68
SWIDTH 42 0
DWIDTH 8 0
BBX 9 9 0 0
BITMAP
3F00
3180
2080
2080
2080
2180
6100
4200
FC00
ENDCHAR
STARTCHAR E
ENCODING 69
SWIDTH 42 0
DWIDTH 6 0
BBX 7 9 0 0
BITMAP
3E
32
20
24
3C
28
60
44
FC
ENDCHAR
STARTCHAR F
ENCODING 70
SWIDTH 42 0
DWIDTH 6 0
BBX 7 9 0 0
BITMAP
3E
32
20
24
3C
28
40
40
E0
ENDCHAR
STARTCHAR G
ENCODING 71
SWIDTH 42 0
DWIDTH 8 0
BBX 7 9 1 0
BITMAP
1E
22
40
C0
80
8E
84
C4
7C
ENDCHAR
STARTCHAR H
ENCODING 72
SWIDTH 42 0
DWIDTH 9 0
BBX 10 9 0 0
BITMAP
39C0
3080
2180
2100
3F00
2100
6100
4300
E700
ENDCHAR
STARTCHAR I
ENCODING 73
SWIDTH 42 0
DWIDTH 4 0
BBX 5 9 0 0
BITMAP
38
10
30
20
20
20
60
40
E0
ENDCHAR
STARTCHAR J
ENCODING 74
SWIDTH 42 0
DWIDTH 5 0
BBX 6 11 0 -2
BITMAP
1C
08
08
18
10
10
10
10
10
A0
E0
ENDCHAR
STARTCHAR K
ENCODING 75
SWIDTH 42 0
DWIDTH 8 0
BBX 8 9 0 0
BITMAP
7B
32
24
38
30
78
48
44
EE
ENDCHAR
STARTCHAR L
ENCODING 76
SWIDTH 42 0
DWIDTH 6 0
BBX 6 9 0 0
BITMAP
78
30
20
20
20
20
40
44
FC
ENDCHAR
STARTCHAR M
ENCODING 77
SWIDTH 42 0
DWIDTH 10 0
BBX 11 9 0 0
BITMAP
30E0
30C0
3140
3B80
2A80
2C80
4C80
4180
E380
ENDCHAR
STARTCHAR N
ENCODING 78
SWIDTH 42 0
DWIDTH 8 0
BBX 10 9 0 0
BITMAP
21C0
3100
3100
2900
2900
2500
4700
4200
E200
ENDCHAR
STARTCHAR O
ENCODING 79
SWIDTH 42 0
DWIDTH 9 0
BBX 8 9 1 0
BITMAP
1E
22
43
C1
83
82
82
C4
78
ENDCHAR
STARTCHAR P
ENCODING 80
SWIDTH 42 0
DWIDTH 6 0
BBX 7 9 0 0
BITMAP
3C
32
22
24
38
60
40
40
E0
ENDCHAR
STARTCHAR Q
ENCODING 81
SWIDTH 42 0
DWIDTH 9 0
BBX 9 11 1 -2
BITMAP
1C00
2200
4300
C100
8300
8200
8200
C400
7800
0800
0780
ENDCHAR
STARTCHAR R
ENCODING 82
SWIDTH 42 0
DWIDTH 8 0
BBX 7 9 0 0
BITMAP
7C
26
22
24
38
68
48
44
E6
ENDCHAR
STARTCHAR S
ENCODING 83
SWIDTH 42 0
DWIDTH 6 0
BBX 6 9 1 0
BITMAP
3C
64
44
20
18
08
8C
88
F0
ENDCHAR
STARTCHAR T
ENCODING 84
SWIDTH 42 0
DWIDTH 7 0
BBX 7 9 2 0
BITMAP
FE
92
10
30
20
20
20
20
F0
ENDCHAR
STARTCHAR U
ENCODING 85
SWIDTH 42 0
DWIDTH 8 0
BBX 8 9 2 0
BITMAP
E7
42
42
44
84
84
84
C8
78
ENDCHAR
STARTCHAR V
ENCODING 86
SWIDTH 42 0
DWIDTH 7 0
BBX 8 9 1 0
BITMAP
E3
42
42
44
4C
68
30
30
20
ENDCHAR
STARTCHAR W
ENCODING 87
SWIDTH 42 0
DWIDTH 10 0
BBX 10 9 1 0
BITMAP
E4C0
4C80
4C80
5500
5500
6600
6600
6400
4400
ENDCHAR
STARTCHAR X
ENCODING 88
SWIDTH 42 0
DWIDTH 7 0
BBX 9 9 0 0
BITMAP
3980
1100
1200
0C00
0800
1400
2400
4200
C700
ENDCHAR
STARTCHAR Y
ENCODING 89
SWIDTH 42 0
DWIDTH 7 0
BBX 7 9 2 0
BITMAP
E6
44
4C
38
30
20
20
20
70
ENDCHAR
STARTCHAR Z
ENCODING 90
SWIDTH 42 0
DWIDTH 7 0
BBX 7 9 1 0
BITMAP
3E
24
4C
08
10
20
60
44
FC
ENDCHAR
STARTCHAR bracketleft
ENCODING 91
SWIDTH 42 0
DWIDTH 3 0
BBX 4 11 1 -2
BITMAP
30
20
60
40
40
40
40
40
80
80
C0
ENDCHAR
STARTCHAR backslash
ENCODING 92
SWIDTH 42 0
DWIDTH 5 0
BBX 3 11 2 -2
BITMAP
80
80
40
40
40
40
40
40
40
20
20
ENDCHAR
STARTCHAR bracketright
ENCODING 93
SWIDTH 42 0
DWIDTH 3 0
BBX 4 11 0 -2
BITMAP
30
10
10
20
20
20
20
20
20
40
C0
ENDCHAR
STARTCHAR asciicircum
ENCODING 94
SWIDTH 42 0
DWIDTH 7 0
BBX 6 8 1 1
BITMAP
08
18
28
28
48
44
84
84
ENDCHAR
STARTCHAR underscore
ENCODING 95
SWIDTH 42 0
DWIDTH 5 0
BBX 5 1 0 -1
BITMAP
F8
ENDCHAR
STARTCHAR quoteleft
ENCODING 96
SWIDTH 42 0
DWIDTH 3 0
BBX 2 4 2 5
BITMAP
40
80
80
C0
ENDCHAR
STARTCHAR a
ENCODING 97
SWIDTH 42 0
DWIDTH 7 0
BBX 6 6 1 0
BITMAP
3C
44
48
88
B8
EC
ENDCHAR
STARTCHAR b
ENCODING 98
SWIDTH 42 0
DWIDTH 7 0
BBX 6 9 1 0
BITMAP
60
20
40
5C
64
64
48
88
F0
ENDCHAR
STARTCHAR c
ENCODING 99
SWIDTH 42 0
DWIDTH 5 0
BBX 5 6 1 0
BITMAP
38
48
80
80
80
70
ENDCHAR
STARTCHAR d
ENCODING 100
SWIDTH 42 0
DWIDTH 7 0
BBX 6 9 1 0
BITMAP
0C
04
04
38
48
48
88
B8
E8
ENDCHAR
STARTCHAR e
ENCODING 101
SWIDTH 42 0
DWIDTH 6 0
BBX 5 6 1 0
BITMAP
38
48
90
E0
88
70
ENDCHAR
STARTCHAR f
ENCODING 102
SWIDTH 42 0
DWIDTH 4 0
BBX 5 11 1 -2
BITMAP
18
28
20
70
40
40
40
40
C0
80
80
ENDCHAR
STARTCHAR g
ENCODING 103
SWIDTH 42 0
DWIDTH 7 0
BBX 6 8 1 -2
BITMAP
1C
24
44
48
D8
68
88
F0
ENDCHAR
STARTCHAR h
ENCODING 104
SWIDTH 42 0
DWIDTH 7 0
BBX 6 9 1 0
BITMAP
60
20
40
5C
74
44
48
88
8C
ENDCHAR
STARTCHAR i
ENCODING 105
SWIDTH 42 0
DWIDTH 3 0
BBX 3 9 1 0
BITMAP
20
00
00
E0
40
40
40
80
C0
ENDCHAR
STARTCHAR j
ENCODING 106
SWIDTH 42 0
DWIDTH 4 0
BBX 5 11 0 -2
BITMAP
08
00
00
18
10
10
10
10
10
A0
C0
ENDCHAR
STARTCHAR k
ENCODING 107
SWIDTH 42 0
DWIDTH 6 0
BBX 6 9 1 0
BITMAP
60
20
40
44
58
60
70
98
8C
ENDCHAR
STARTCHAR l
ENCODING 108
SWIDTH 42 0
DWIDTH 3 0
BBX 3 9 1 0
BITMAP
60
20
40
40
40
40
40
80
C0
ENDCHAR
STARTCHAR m
ENCODING 109
SWIDTH 42 0
DWIDTH 10 0
BBX 9 6 1 0
BITMAP
DB80
6E80
6C80
4900
8900
9980
ENDCHAR
STARTCHAR n
ENCODING 110
SWIDTH 42 0
DWIDTH 7 0
BBX 6 6 1 0
BITMAP
DC
54
64
48
88
8C
ENDCHAR
STARTCHAR o
ENCODING 111
SWIDTH 42 0
DWIDTH 6 0
BBX 5 6 1 0
BITMAP
38
48
C8
88
98
F0
ENDCHAR
STARTCHAR p
ENCODING 112
SWIDTH 42 0
DWIDTH 7 0
BBX 6 8 1 -2
BITMAP
DC
74
64
48
48
F0
80
80
ENDCHAR
STARTCHAR q
ENCODING 113
SWIDTH 42 0
DWIDTH 7 0
BBX 6 8 1 -2
BITMAP
3C
44
48
88
B8
E8
08
10
ENDCHAR
STARTCHAR r
ENCODING 114
SWIDTH 42 0
DWIDTH 5 0
BBX 5 6 1 0
BITMAP
D8
68
60
40
80
80
ENDCHAR
STARTCHAR s
ENCODING 115
SWIDTH 42 0
DWIDTH 5 0
BBX 4 6 1 0
BITMAP
70
50
40
20
90
E0
ENDCHAR
STARTCHAR t
ENCODING 116
SWIDTH 42 0
DWIDTH 4 0
BBX 4 9 1 0
BITMAP
20
40
40
F0
40
40
80
80
E0
ENDCHAR
STARTCHAR u
ENCODING 117
SWIDTH 42 0
DWIDTH 7 0
BBX 6 6 1 0
BITMAP
CC
44
4C
98
98
EC
ENDCHAR
STARTCHAR v
ENCODING 118
SWIDTH 42 0
DWIDTH 6 0
BBX 6 6 1 0
BITMAP
C4
44
2C
28
30
20
ENDCHAR
STARTCHAR w
ENCODING 119
SWIDTH 42 0
DWIDTH 9 0
BBX 9 6 1 0
BITMAP
C980
4980
5D00
3600
2600
2400
ENDCHAR
STARTCHAR x
ENCODING 120
SWIDTH 42 0
DWIDTH 6 0
BBX 6 6 0 0
BITMAP
C4
28
30
70
D8
8C
ENDCHAR
STARTCHAR y
ENCODING 121
SWIDTH 42 0
DWIDTH 6 0
BBX 7 8 0 -2
BITMAP
66
22
24
28
18
20
20
C0
ENDCHAR
STARTCHAR z
ENCODING 122
SWIDTH 42 0
DWIDTH 6 0
BBX 6 6 0 0
BITMAP
7C
48
10
20
48
F8
ENDCHAR
STARTCHAR braceleft
ENCODING 123
SWIDTH 42 0
DWIDTH 4 0
BBX 4 11 1 -2
BITMAP
30
20
20
20
40
80
40
40
80
80
C0
ENDCHAR
STARTCHAR bar
ENCODING 124
SWIDTH 42 0
DWIDTH 3 0
BBX 3 11 1 -2
BITMAP
20
20
40
40
40
40
40
40
40
80
80
ENDCHAR
STARTCHAR braceright
ENCODING 125
SWIDTH 42 0
DWIDTH 4 0
BBX 4 11 1 -2
BITMAP
20
10
10
20
20
30
40
40
40
40
C0
ENDCHAR
STARTCHAR asciitilde
ENCODING 126
SWIDTH 42 0
DWIDTH 7 0
BBX 7 3 0 2
BITMAP
62
92
8C
ENDCHAR
STARTCHAR exclamdown
ENCODING 161
SWIDTH 42 0
DWIDTH 3 0
BBX 3 8 0 -2
BITMAP
20
00
40
40
40
40
80
80
ENDCHAR
STARTCHAR cent
ENCODING 162
SWIDTH 42 0
DWIDTH 7 0
BBX 5 9 2 0
BITMAP
08
18
78
A0
A0
A0
B0
F0
40
ENDCHAR
STARTCHAR sterling
ENCODING 163
SWIDTH 42 0
DWIDTH 7 0
BBX 6 9 1 0
BITMAP
1C
14
20
20
70
20
40
40
F8
ENDCHAR
STARTCHAR currency
ENCODING 164
SWIDTH 42 0
DWIDTH 7 0
BBX 8 9 0 0
BITMAP
43
3A
2C
44
44
44
48
74
86
ENDCHAR
STARTCHAR yen
ENCODING 165
SWIDTH 42 0
DWIDTH 7 0
BBX 7 9 1 0
BITMAP
E6
44
68
30
78
20
F0
20
E0
ENDCHAR
STARTCHAR brokenbar
ENCODING 166
SWIDTH 42 0
DWIDTH 3 0
BBX 3 11 1 -2
BITMAP
20
20
20
20
40
00
40
80
80
80
80
ENDCHAR
STARTCHAR section
ENCODING 167
SWIDTH 42 0
DWIDTH 7 0
BBX 6 11 1 -2
BITMAP
1C
24
20
30
58
44
34
08
04
88
F8
ENDCHAR
STARTCHAR dieresis
ENCODING 168
SWIDTH 42 0
DWIDTH 6 0
BBX 3 1 3 8
BITMAP
A0
ENDCHAR
STARTCHAR copyright
ENCODING 169
SWIDTH 42 0
DWIDTH 9 0
BBX 8 9 1 0
BITMAP
3C
43
9D
95
A1
A1
9D
43
3C
ENDCHAR
STARTCHAR ordfeminine
ENCODING 170
SWIDTH 42 0
DWIDTH 4 0
BBX 4 6 1 3
BITMAP
70
50
90
B0
F0
F0
ENDCHAR
STARTCHAR guillemotleft
ENCODING 171
SWIDTH 42 0
DWIDTH 6 0
BBX 5 6 1 0
BITMAP
28
50
90
A0
50
50
ENDCHAR
STARTCHAR logicalnot
ENCODING 172
SWIDTH 42 0
DWIDTH 7 0
BBX 6 4 1 1
BITMAP
FC
04
04
04
ENDCHAR
STARTCHAR hyphen
ENCODING 173
SWIDTH 42 0
DWIDTH 3 0
BBX 3 1 1 3
BITMAP
E0
ENDCHAR
STARTCHAR registered
ENCODING 174
SWIDTH 42 0
DWIDTH 7 0
BBX 5 6 2 3
BITMAP
70
E8
C8
E8
E8
70
ENDCHAR
STARTCHAR macron
ENCODING 175
SWIDTH 42 0
DWIDTH 6 0
BBX 3 1 3 8
BITMAP
E0
ENDCHAR
STARTCHAR degree
ENCODING 176
SWIDTH 42 0
DWIDTH 3 0
BBX 2 3 2 6
BITMAP
C0
C0
C0
ENDCHAR
STARTCHAR plusminus
ENCODING 177
SWIDTH 42 0
DWIDTH 7 0
BBX 7 8 0 0
BITMAP
08
08
7E
10
10
10
00
FC
ENDCHAR
STARTCHAR twosuperior
ENCODING 178
SWIDTH 42 0
DWIDTH 4 0
BBX 4 5 -5 4
BITMAP
70
50
60
80
E0
ENDCHAR
STARTCHAR threesuperior
ENCODING 179
SWIDTH 42 0
DWIDTH 4 0
BBX 3 5 -5 4
BITMAP
60
60
60
A0
E0
ENDCHAR
STARTCHAR acute
ENCODING 180
SWIDTH 42 0
DWIDTH 6 0
BBX 3 2 4 7
BITMAP
60
80
ENDCHAR
STARTCHAR mu
ENCODING 181
SWIDTH 42 0
DWIDTH 7 0
BBX 6 8 1 -2
BITMAP
CC
44
44
48
58
EC
80
80
ENDCHAR
STARTCHAR paragraph
ENCODING 182
SWIDTH 42 0
DWIDTH 7 0
BBX 5 11 2 -2
BITMAP
78
F0
F0
F0
50
50
50
50
50
50
60
ENDCHAR
STARTCHAR periodcentered
ENCODING 183
SWIDTH 42 0
DWIDTH 7 0
BBX 1 1 3 3
BITMAP
80
ENDCHAR
STARTCHAR cedilla
ENCODING 184
SWIDTH 42 0
DWIDTH 6 0
BBX 2 3 2 -2
BITMAP
40
40
C0
ENDCHAR
STARTCHAR onesuperior
ENCODING 185
SWIDTH 42 0
DWIDTH 4 0
BBX 3 5 -5 4
BITMAP
60
20
40
40
E0
ENDCHAR
STARTCHAR ordmasculine
ENCODING 186
SWIDTH 42 0
DWIDTH 4 0
BBX 4 6 1 3
BITMAP
30
50
90
90
90
E0
ENDCHAR
STARTCHAR guillemotright
ENCODING 187
SWIDTH 42 0
DWIDTH 6 0
BBX 5 6 1 0
BITMAP
50
50
28
48
50
A0
ENDCHAR
STARTCHAR onequarter
ENCODING 188
SWIDTH 42 0
DWIDTH 9 0
BBX 9 9 2 0
BITMAP
6080
2100
4200
4400
EB00
0900
1700
2100
4300
ENDCHAR
STARTCHAR onehalf
ENCODING 189
SWIDTH 42 0
DWIDTH 9 0
BBX 9 9 2 0
BITMAP
6080
2100
4200
4400
EB80
0A80
1300
2400
4700
ENDCHAR
STARTCHAR threequarters
ENCODING 190
SWIDTH 42 0
DWIDTH 9 0
BBX 9 9 2 0
BITMAP
6080
6100
6200
A400
EB00
0900
1700
2100
4300
ENDCHAR
STARTCHAR questiondown
ENCODING 191
SWIDTH 42 0
DWIDTH 5 0
BBX 4 8 0 -2
BITMAP
10
00
10
20
40
80
90
70
ENDCHAR
STARTCHAR Agrave
ENCODING 192
SWIDTH 42 0
DWIDTH 8 0
BBX 8 11 0 0
BITMAP
04
02
04
0C
0C
14
32
3E
42
42
C7
ENDCHAR
STARTCHAR Aacute
ENCODING 193
SWIDTH 42 0
DWIDTH 8 0
BBX 8 11 0 0
BITMAP
03
04
04
0C
0C
14
32
3E
42
42
C7
ENDCHAR
STARTCHAR Acircumflex
ENCODING 194
SWIDTH 42 0
DWIDTH 8 0
BBX 8 11 0 0
BITMAP
04
0A
04
0C
0C
14
32
3E
42
42
C7
ENDCHAR
STARTCHAR Atilde
ENCODING 195
SWIDTH 42 0
DWIDTH 8 0
BBX 8 10 0 0
BITMAP
0F
04
0C
0C
14
32
3E
42
42
C7
ENDCHAR
STARTCHAR Adieresis
ENCODING 196
SWIDTH 42 0
DWIDTH 8 0
BBX 8 10 0 0
BITMAP
0A
04
0C
0C
14
32
3E
42
42
C7
ENDCHAR
STARTCHAR Aring
ENCODING 197
SWIDTH 42 0
DWIDTH 8 0
BBX 8 11 0 0
BITMAP
06
06
04
0C
0C
14
32
3E
42
42
C7
ENDCHAR
STARTCHAR AE
ENCODING 198
SWIDTH 42 0
DWIDTH 10 0
BBX 11 9 0 0
BITMAP
03E0
0620
0E40
13C0
1240
3E00
2400
C440
CFC0
ENDCHAR
STARTCHAR Ccedilla
ENCODING 199
SWIDTH 42 0
DWIDTH 8 0
BBX 7 11 1 -2
BITMAP
1E
22
40
C0
80
80
80
C4
78
20
60
ENDCHAR
STARTCHAR Egrave
ENCODING 200
SWIDTH 42 0
DWIDTH 6 0
BBX 7 11 0 0
BITMAP
10
08
3E
32
20
24
3C
28
60
44
FC
ENDCHAR
STARTCHAR Eacute
ENCODING 201
SWIDTH 42 0
DWIDTH 6 0
BBX 7 11 0 0
BITMAP
06
08
3E
32
20
24
3C
28
60
44
FC
ENDCHAR
STARTCHAR Ecircumflex
ENCODING 202
SWIDTH 42 0
DWIDTH 6 0
BBX 7 11 0 0
BITMAP
08
14
3E
32
20
24
3C
28
60
44
FC
ENDCHAR
STARTCHAR Edieresis
ENCODING 203
SWIDTH 42 0
DWIDTH 6 0
BBX 7 10 0 0
BITMAP
14
3E
32
20
24
3C
28
60
44
FC
ENDCHAR
STARTCHAR Igrave
ENCODING 204
SWIDTH 42 0
DWIDTH 4 0
BBX 5 11 0 0
BITMAP
20
10
38
10
30
20
20
20
60
40
E0
ENDCHAR
STARTCHAR Iacute
ENCODING 205
SWIDTH 42 0
DWIDTH 4 0
BBX 6 11 0 0
BITMAP
0C
10
38
10
30
20
20
20
60
40
E0
ENDCHAR
STARTCHAR Icircumflex
ENCODING 206
SWIDTH 42 0
DWIDTH 4 0
BBX 5 11 0 0
BITMAP
10
28
38
10
30
20
20
20
60
40
E0
ENDCHAR
STARTCHAR Idieresis
ENCODING 207
SWIDTH 42 0
DWIDTH 4 0
BBX 5 10 0 0
BITMAP
28
38
10
30
20
20
20
60
40
E0
ENDCHAR
STARTCHAR Eth
ENCODING 208
SWIDTH 42 0
DWIDTH 8 0
BBX 9 9 0 0
BITMAP
3F00
3180
2080
2080
7880
2180
2100
4200
FC00
ENDCHAR
STARTCHAR Ntilde
ENCODING 209
SWIDTH 42 0
DWIDTH 8 0
BBX 10 10 0 0
BITMAP
0F00
21C0
3100
3100
2900
2900
2500
4700
4200
E200
ENDCHAR
STARTCHAR Ograve
ENCODING 210
SWIDTH 42 0
DWIDTH 9 0
BBX 8 11 1 0
BITMAP
08
04
1E
22
43
C1
83
82
82
C4
78
ENDCHAR
STARTCHAR Oacute
ENCODING 211
SWIDTH 42 0
DWIDTH 9 0
BBX 8 11 1 0
BITMAP
06
08
1E
22
43
C1
83
82
82
C4
78
ENDCHAR
STARTCHAR Ocircumflex
ENCODING 212
SWIDTH 42 0
DWIDTH 9 0
BBX 8 11 1 0
BITMAP
08
14
1E
22
43
C1
83
82
82
C4
78
ENDCHAR
STARTCHAR Otilde
ENCODING 213
SWIDTH 42 0
DWIDTH 9 0
BBX 8 10 1 0
BITMAP
1E
1E
22
43
C1
83
82
82
C4
78
ENDCHAR
STARTCHAR Odieresis
ENCODING 214
SWIDTH 42 0
DWIDTH 9 0
BBX 8 10 1 0
BITMAP
14
1E
22
43
C1
83
82
82
C4
78
ENDCHAR
STARTCHAR multiply
ENCODING 215
SWIDTH 42 0
DWIDTH 7 0
BBX 7 8 0 0
BITMAP
42
64
24
18
30
48
4C
84
ENDCHAR
STARTCHAR Oslash
ENCODING 216
SWIDTH 42 0
DWIDTH 9 0
BBX 9 9 1 0
BITMAP
0E80
3100
2100
4700
4900
5100
6200
4600
BC00
ENDCHAR
STARTCHAR Ugrave
ENCODING 217
SWIDTH 42 0
DWIDTH 8 0
BBX 8 11 2 0
BITMAP
10
08
E7
42
42
44
84
84
84
C8
78
ENDCHAR
STARTCHAR Uacute
ENCODING 218
SWIDTH 42 0
DWIDTH 8 0
BBX 8 11 2 0
BITMAP
0C
10
E7
42
42
44
84
84
84
C8
78
ENDCHAR
STARTCHAR Ucircumflex
ENCODING 219
SWIDTH 42 0
DWIDTH 8 0
BBX 8 11 2 0
BITMAP
08
14
E7
42
42
44
84
84
84
C8
78
ENDCHAR
STARTCHAR Udieresis
ENCODING 220
SWIDTH 42 0
DWIDTH 8 0
BBX 8 10 2 0
BITMAP
14
E7
42
42
44
84
84
84
C8
78
ENDCHAR
STARTCHAR Yacute
ENCODING 221
SWIDTH 42 0
DWIDTH 7 0
BBX 7 11 2 0
BITMAP
0C
10
E6
44
4C
38
30
20
20
20
70
ENDCHAR
STARTCHAR Thorn
ENCODING 222
SWIDTH 42 0
DWIDTH 6 0
BBX 7 9 0 0
BITMAP
38
10
3E
22
22
24
78
40
E0
ENDCHAR
STARTCHAR germandbls
ENCODING 223
SWIDTH 42 0
DWIDTH 7 0
BBX 6 11 1 -2
BITMAP
18
24
28
70
50
48
44
54
F8
80
80
ENDCHAR
STARTCHAR agrave
ENCODING 224
SWIDTH 42 0
DWIDTH 7 0
BBX 6 8 1 0
BITMAP
10
08
3C
44
48
88
B8
EC
ENDCHAR
STARTCHAR aacute
ENCODING 225
SWIDTH 42 0
DWIDTH 7 0
BBX 6 8 1 0
BITMAP
0C
10
3C
44
48
88
B8
EC
ENDCHAR
STARTCHAR acircumflex
ENCODING 226
SWIDTH 42 0
DWIDTH 7 0
BBX 6 8 1 0
BITMAP
08
14
3C
44
48
88
B8
EC
ENDCHAR
STARTCHAR atilde
ENCODING 227
SWIDTH 42 0
DWIDTH 7 0
BBX 6 7 1 0
BITMAP
3C
3C
44
48
88
B8
EC
ENDCHAR
STARTCHAR adieresis
ENCODING 228
SWIDTH 42 0
DWIDTH 7 0
BBX 6 7 1 0
BITMAP
14
3C
44
48
88
B8
EC
ENDCHAR
STARTCHAR aring
ENCODING 229
SWIDTH 42 0
DWIDTH 7 0
BBX 6 8 1 0
BITMAP
18
18
3C
44
48
88
B8
EC
ENDCHAR
STARTCHAR ae
ENCODING 230
SWIDTH 42 0
DWIDTH 10 0
BBX 9 6 1 0
BITMAP
3F80
4480
4880
9F00
B880
EF00
ENDCHAR
STARTCHAR ccedilla
ENCODING 231
SWIDTH 42 0
DWIDTH 5 0
BBX 5 8 1 -2
BITMAP
38
48
80
80
80
70
40
C0
ENDCHAR
STARTCHAR egrave
ENCODING 232
SWIDTH 42 0
DWIDTH 6 0
BBX 5 8 1 0
BITMAP
20
10
38
48
90
E0
88
70
ENDCHAR
STARTCHAR eacute
ENCODING 233
SWIDTH 42 0
DWIDTH 6 0
BBX 6 8 1 0
BITMAP
0C
10
38
48
90
E0
88
70
ENDCHAR
STARTCHAR ecircumflex
ENCODING 234
SWIDTH 42 0
DWIDTH 6 0
BBX 5 8 1 0
BITMAP
10
28
38
48
90
E0
88
70
ENDCHAR
STARTCHAR edieresis
ENCODING 235
SWIDTH 42 0
DWIDTH 6 0
BBX 5 7 1 0
BITMAP
28
38
48
90
E0
88
70
ENDCHAR
STARTCHAR igrave
ENCODING 236
SWIDTH 42 0
DWIDTH 3 0
BBX 3 8 1 0
BITMAP
40
20
C0
40
40
40
80
C0
ENDCHAR
STARTCHAR iacute
ENCODING 237
SWIDTH 42 0
DWIDTH 3 0
BBX 4 8 1 0
BITMAP
30
40
C0
40
40
40
80
C0
ENDCHAR
STARTCHAR icircumflex
ENCODING 238
SWIDTH 42 0
DWIDTH 3 0
BBX 3 8 1 0
BITMAP
40
A0
C0
40
40
40
80
C0
ENDCHAR
STARTCHAR idieresis
ENCODING 239
SWIDTH 42 0
DWIDTH 3 0
BBX 4 7 1 0
BITMAP
50
C0
40
40
40
80
C0
ENDCHAR
STARTCHAR eth
ENCODING 240
SWIDTH 42 0
DWIDTH 6 0
BBX 5 9 1 0
BITMAP
78
38
48
38
48
88
88
98
70
ENDCHAR
STARTCHAR ntilde
ENCODING 241
SWIDTH 42 0
DWIDTH 7 0
BBX 6 7 1 0
BITMAP
3C
DC
54
64
48
88
8C
ENDCHAR
STARTCHAR ograve
ENCODING 242
SWIDTH 42 0
DWIDTH 6 0
BBX 5 8 1 0
BITMAP
10
08
38
48
C8
88
98
F0
ENDCHAR
STARTCHAR oacute
ENCODING 243
SWIDTH 42 0
DWIDTH 6 0
BBX 6 8 1 0
BITMAP
0C
10
38
48
C8
88
98
F0
ENDCHAR
STARTCHAR ocircumflex
ENCODING 244
SWIDTH 42 0
DWIDTH 6 0
BBX 5 8 1 0
BITMAP
10
28
38
48
C8
88
98
F0
ENDCHAR
STARTCHAR otilde
ENCODING 245
SWIDTH 42 0
DWIDTH 6 0
BBX 6 7 1 0
BITMAP
3C
38
48
C8
88
98
F0
ENDCHAR
STARTCHAR odieresis
ENCODING 246
SWIDTH 42 0
DWIDTH 6 0
BBX 5 7 1 0
BITMAP
28
38
48
C8
88
98
F0
ENDCHAR
STARTCHAR divide
ENCODING 247
SWIDTH 42 0
DWIDTH 7 0
BBX 6 6 1 0
BITMAP
10
00
00
FC
00
20
ENDCHAR
STARTCHAR oslash
ENCODING 248
SWIDTH 42 0
DWIDTH 6 0
BBX 6 6 0 0
BITMAP
3C
64
54
F4
48
F0
ENDCHAR
STARTCHAR ugrave
ENCODING 249
SWIDTH 42 0
DWIDTH 7 0
BBX 6 8 1 0
BITMAP
10
08
CC
44
4C
98
98
EC
ENDCHAR
STARTCHAR uacute
ENCODING 250
SWIDTH 42 0
DWIDTH 7 0
BBX 6 8 1 0
BITMAP
0C
10
CC
44
4C
98
98
EC
ENDCHAR
STARTCHAR ucircumflex
ENCODING 251
SWIDTH 42 0
DWIDTH 7 0
BBX 6 8 1 0
BITMAP
08
14
CC
44
4C
98
98
EC
ENDCHAR
STARTCHAR udieresis
ENCODING 252
SWIDTH 42 0
DWIDTH 7 0
BBX 6 7 1 0
BITMAP
14
CC
44
4C
98
98
EC
ENDCHAR
STARTCHAR yacute
ENCODING 253
SWIDTH 42 0
DWIDTH 6 0
BBX 7 10 0 -2
BITMAP
06
08
66
22
24
28
18
20
20
C0
ENDCHAR
STARTCHAR thorn
ENCODING 254
SWIDTH 42 0
DWIDTH 7 0
BBX 6 11 1 -2
BITMAP
60
20
40
5C
74
64
48
48
F0
80
80
ENDCHAR
STARTCHAR ydieresis
ENCODING 255
SWIDTH 42 0
DWIDTH 6 0
BBX 7 9 0 -2
BITMAP
14
66
22
24
28
18
20
20
C0
ENDCHAR
STARTCHAR fl
ENCODING -1
SWIDTH 42 0
DWIDTH 7 0
BBX 7 11 1 -2
BITMAP
1E
22
24
74
44
44
44
4C
4C
80
80
ENDCHAR
STARTCHAR endash
ENCODING -1
SWIDTH 42 0
DWIDTH 5 0
BBX 5 1 1 3
BITMAP
F8
ENDCHAR
STARTCHAR dagger
ENCODING -1
SWIDTH 42 0
DWIDTH 7 0
BBX 5 11 2 -2
BITMAP
10
20
20
F8
20
20
40
40
40
40
40
ENDCHAR
STARTCHAR Zcaron
ENCODING -1
SWIDTH 42 0
DWIDTH 7 0
BBX 7 11 1 0
BITMAP
0A
04
3E
24
4C
08
10
20
60
44
FC
ENDCHAR
STARTCHAR oe
ENCODING -1
SWIDTH 42 0
DWIDTH 10 0
BBX 9 6 1 0
BITMAP
3B80
4C80
8880
8F00
9880
6700
ENDCHAR
STARTCHAR Ydieresis
ENCODING -1
SWIDTH 42 0
DWIDTH 7 0
BBX 7 10 2 0
BITMAP
28
E6
44
4C
38
30
20
20
20
70
ENDCHAR
STARTCHAR dotlessi
ENCODING -1
SWIDTH 42 0
DWIDTH 3 0
BBX 2 6 1 0
BITMAP
C0
40
40
40
80
C0
ENDCHAR
STARTCHAR lslash
ENCODING -1
SWIDTH 42 0
DWIDTH 3 0
BBX 4 9 0 0
BITMAP
70
20
20
20
F0
40
40
40
E0
ENDCHAR
STARTCHAR Lslash
ENCODING -1
SWIDTH 42 0
DWIDTH 6 0
BBX 6 9 0 0
BITMAP
38
30
20
30
60
A0
60
44
FC
ENDCHAR
STARTCHAR daggerdbl
ENCODING -1
SWIDTH 42 0
DWIDTH 7 0
BBX 6 11 1 -2
BITMAP
10
10
10
7C
20
20
20
F8
20
20
40
ENDCHAR
STARTCHAR fi
ENCODING -1
SWIDTH 42 0
DWIDTH 7 0
BBX 7 11 1 -2
BITMAP
1A
28
20
7E
64
44
44
44
4C
80
80
ENDCHAR
STARTCHAR guilsinglright
ENCODING -1
SWIDTH 42 0
DWIDTH 4 0
BBX 3 6 1 0
BITMAP
40
40
20
20
40
80
ENDCHAR
STARTCHAR OE
ENCODING -1
SWIDTH 42 0
DWIDTH 11 0
BBX 11 9 1 0
BITMAP
1FE0
2220
4200
C240
83C0
8640
8400
C440
7FC0
ENDCHAR
STARTCHAR emdash
ENCODING -1
SWIDTH 42 0
DWIDTH 11 0
BBX 10 1 1 3
BITMAP
FFC0
ENDCHAR
STARTCHAR caron
ENCODING -1
SWIDTH 42 0
DWIDTH 6 0
BBX 3 2 4 7
BITMAP
A0
40
ENDCHAR
STARTCHAR ogonek
ENCODING -1
SWIDTH 42 0
DWIDTH 6 0
BBX 2 2 2 -2
BITMAP
C0
C0
ENDCHAR
STARTCHAR hungarumlaut
ENCODING -1
SWIDTH 42 0
DWIDTH 6 0
BBX 4 2 3 7
BITMAP
70
C0
ENDCHAR
STARTCHAR guilsinglleft
ENCODING -1
SWIDTH 42 0
DWIDTH 4 0
BBX 3 6 1 0
BITMAP
20
40
80
80
40
40
ENDCHAR
STARTCHAR dotaccent
ENCODING -1
SWIDTH 42 0
DWIDTH 6 0
BBX 1 1 4 8
BITMAP
80
ENDCHAR
STARTCHAR breve
ENCODING -1
SWIDTH 42 0
DWIDTH 6 0
BBX 4 2 3 7
BITMAP
90
E0
ENDCHAR
STARTCHAR bullet
ENCODING -1
SWIDTH 42 0
DWIDTH 7 0
BBX 3 3 2 2
BITMAP
E0
E0
E0
ENDCHAR
STARTCHAR tilde
ENCODING -1
SWIDTH 42 0
DWIDTH 6 0
BBX 4 1 3 8
BITMAP
F0
ENDCHAR
STARTCHAR circumflex
ENCODING -1
SWIDTH 42 0
DWIDTH 6 0
BBX 3 2 3 7
BITMAP
40
A0
ENDCHAR
STARTCHAR quotedblleft
ENCODING -1
SWIDTH 42 0
DWIDTH 5 0
BBX 4 4 2 5
BITMAP
50
A0
A0
F0
ENDCHAR
STARTCHAR quotesingle
ENCODING -1
SWIDTH 42 0
DWIDTH 3 0
BBX 1 4 2 5
BITMAP
80
80
80
80
ENDCHAR
STARTCHAR scaron
ENCODING -1
SWIDTH 42 0
DWIDTH 5 0
BBX 5 8 1 0
BITMAP
28
10
70
50
40
20
90
E0
ENDCHAR
STARTCHAR ring
ENCODING -1
SWIDTH 42 0
DWIDTH 6 0
BBX 2 2 4 7
BITMAP
C0
C0
ENDCHAR
STARTCHAR quotesinglbase
ENCODING -1
SWIDTH 42 0
DWIDTH 3 0
BBX 2 4 0 -2
BITMAP
40
C0
40
80
ENDCHAR
STARTCHAR florin
ENCODING -1
SWIDTH 42 0
DWIDTH 7 0
BBX 5 11 2 -2
BITMAP
18
28
60
40
E0
40
40
40
C0
80
80
ENDCHAR
STARTCHAR trademark
ENCODING -1
SWIDTH 42 0
DWIDTH 10 0
BBX 10 5 1 4
BITMAP
FEC0
4680
4B80
4A80
C880
ENDCHAR
STARTCHAR fraction
ENCODING -1
SWIDTH 42 0
DWIDTH 1 0
BBX 8 9 -2 0
BITMAP
01
02
04
08
10
10
20
40
80
ENDCHAR
STARTCHAR grave
ENCODING -1
SWIDTH 42 0
DWIDTH 6 0
BBX 2 2 3 7
BITMAP
80
40
ENDCHAR
STARTCHAR perthousand
ENCODING -1
SWIDTH 42 0
DWIDTH 12 0
BBX 11 9 1 0
BITMAP
7300
5200
5400
6800
16E0
29A0
29A0
4AA0
86C0
ENDCHAR
STARTCHAR ellipsis
ENCODING -1
SWIDTH 42 0
DWIDTH 11 0
BBX 9 1 1 0
BITMAP
8880
ENDCHAR
STARTCHAR quotedblright
ENCODING -1
SWIDTH 42 0
DWIDTH 5 0
BBX 4 4 2 5
BITMAP
F0
50
50
A0
ENDCHAR
STARTCHAR Scaron
ENCODING -1
SWIDTH 42 0
DWIDTH 6 0
BBX 6 11 1 0
BITMAP
14
08
3C
64
44
20
18
08
8C
88
F0
ENDCHAR
STARTCHAR quotedblbase
ENCODING -1
SWIDTH 42 0
DWIDTH 5 0
BBX 4 4 0 -2
BITMAP
50
F0
50
A0
ENDCHAR
STARTCHAR zcaron
ENCODING -1
SWIDTH 42 0
DWIDTH 6 0
BBX 6 8 0 0
BITMAP
14
08
7C
48
10
20
48
F8
ENDCHAR
ENDFONT
